<?xml version="1.0" encoding="UTF-8"?>
<svg version="1.1" xmlns="http://www.w3.org/2000/svg" width="128" height="128">
<path d="M0 0 C0.66 0.33 1.32 0.66 2 1 C2 2.65 2 4.3 2 6 C-0.64 5.67 -3.28 5.34 -6 5 C-7.12516085 6.83284443 -7.12516085 6.83284443 -8 9 C-7.67 9.99 -7.34 10.98 -7 12 C-5.90300781 12.04898438 -4.80601563 12.09796875 -3.67578125 12.1484375 C-2.22133075 12.22350591 -0.76690484 12.29905197 0.6875 12.375 C1.40873047 12.4059375 2.12996094 12.436875 2.87304688 12.46875 C6.93447311 12.6912939 10.33673533 13.05279622 14 15 C15.20463755 17.40927511 15.07893471 18.70611534 14.875 21.375 C14.83117187 22.14585938 14.78734375 22.91671875 14.7421875 23.7109375 C13.64401662 27.09792769 12.01706391 28.17829927 9 30 C5.66015625 30.49609375 5.66015625 30.49609375 2.0625 30.4375 C0.28552734 30.43556641 0.28552734 30.43556641 -1.52734375 30.43359375 C-5.26250606 29.96722365 -7.75721734 28.86645658 -11 27 C-11 25.68 -11 24.36 -11 23 C-4.25 23.875 -4.25 23.875 -2 25 C4.31645868 25.41507174 4.31645868 25.41507174 10 23 C9.73323796 21.01508358 9.73323796 21.01508358 9 19 C4.76006784 17.58668928 0.34028561 17.44166336 -4.10742188 17.18945312 C-8.2576068 16.79328163 -9.73713547 16.31111182 -12.46875 13.078125 C-14.78820375 8.4155496 -14.78820375 8.4155496 -14 5 C-10.17656664 -0.5501452 -6.26682555 -0.86184241 0 0 Z " fill="#FC7100" transform="translate(72,51)"/>
<path d="M0 0 C9.80570536 -0.77277888 9.80570536 -0.77277888 14.1875 2.0625 C16.41607253 5.67432444 16.47266285 7.82481154 16 12 C15.67 12.66 15.34 13.32 15 14 C14.80046939 17.53834282 14.68144896 21.07489289 14.57421875 24.6171875 C14 28 14 28 12.3046875 30.4140625 C9.48171494 32.35665039 7.84278207 32.53706429 4.4375 32.5 C3.48746094 32.5103125 2.53742188 32.520625 1.55859375 32.53125 C-1 32 -1 32 -2.828125 30.171875 C-4.35615302 27.33992973 -4.21599043 25.16785959 -4 22 C-2.68 22 -1.36 22 0 22 C0.33 23.65 0.66 25.3 1 27 C3.64 27 6.28 27 9 27 C9.33 23.37 9.66 19.74 10 16 C7.834375 16.061875 7.834375 16.061875 5.625 16.125 C3.1640625 16.1953125 3.1640625 16.1953125 1 16 C-1 14 -1 14 -1.23046875 11.25 C-1.21628906 10.1775 -1.20210938 9.105 -1.1875 8 C-1.18105469 6.9275 -1.17460938 5.855 -1.16796875 4.75 C-1 2 -1 2 0 0 Z M4 4 C2.65595225 5.11836224 2.65595225 5.11836224 2.875 8 C2.65595225 10.88163776 2.65595225 10.88163776 4 12 C6.5 12.16666667 6.5 12.16666667 9 12 C10.27003323 10.94689723 10.27003323 10.94689723 10.1875 8.5625 C10.26839983 5.83265325 10.26839983 5.83265325 8 4 C6.68 4 5.36 4 4 4 Z " fill="#FC7100" transform="translate(74,84)"/>
<path d="M0 0 C1.32 0 2.64 0 4 0 C5.15664737 5.48269069 5.11416255 10.80339274 5.0625 16.375 C5.05798828 17.30183594 5.05347656 18.22867188 5.04882812 19.18359375 C5.03711574 21.45579709 5.02071372 23.72786388 5 26 C3.68 26 2.36 26 1 26 C0.67 20.72 0.34 15.44 0 10 C-1.32 11.32 -2.64 12.64 -4 14 C-6.85767202 14.64722706 -9.01567914 14.28422103 -12 14 C-12.99 13.34 -13.98 12.68 -15 12 C-15.65134925 13.56020867 -16.29582964 15.12328579 -16.9375 16.6875 C-17.29714844 17.55761719 -17.65679688 18.42773438 -18.02734375 19.32421875 C-18.9570312 21.88179265 -19.54162625 24.3221323 -20 27 C-21.32 27 -22.64 27 -24 27 C-24.51635661 20.02918573 -22.7654232 15.33303023 -20 9 C-19.3127513 7.00697876 -18.63484067 5.01032877 -18 3 C-15.625 3.25 -15.625 3.25 -13 4 C-11.6875 6.0625 -11.6875 6.0625 -11 8 C-10.34 8 -9.68 8 -9 8 C-9 8.66 -9 9.32 -9 10 C-5.9223046 7.77721999 -3.99091817 5.98568924 -1.9375 2.75 C-1.298125 1.8425 -0.65875 0.935 0 0 Z " fill="#FC7100" transform="translate(35,73)"/>
<path d="M0 0 C6.15234375 0.5859375 6.15234375 0.5859375 8 1 C9.95230442 4.90460885 9.11180953 9.72074446 9 14 C8.95746094 15.81371094 8.95746094 15.81371094 8.9140625 17.6640625 C8.85992187 18.88867188 8.80578125 20.11328125 8.75 21.375 C8.68039063 23.08816406 8.68039063 23.08816406 8.609375 24.8359375 C7.890552 28.5682877 6.61943785 30.29193455 4 33 C0.97562661 34.5121867 -1.66241534 34.17263369 -5 34 C-8.38031589 32.81232145 -8.93216817 32.10174775 -11 29 C-11.1953125 26.51953125 -11.1953125 26.51953125 -11.125 23.8125 C-11.10695313 22.91144531 -11.08890625 22.01039062 -11.0703125 21.08203125 C-11.04710938 20.39496094 -11.02390625 19.70789063 -11 19 C-9.68 19 -8.36 19 -7 19 C-6.855625 20.093125 -6.71125 21.18625 -6.5625 22.3125 C-6.11711896 25.93122987 -6.11711896 25.93122987 -5 29 C-2.64828869 28.40138258 -0.3140622 27.73075648 2 27 C3.21693876 24.56612247 3.31959896 22.58161154 3.5625 19.875 C3.64628906 18.96492188 3.73007813 18.05484375 3.81640625 17.1171875 C3.87699219 16.41851562 3.93757813 15.71984375 4 15 C3.21625 14.87625 2.4325 14.7525 1.625 14.625 C-1 14 -1 14 -3 12 C-3.47325628 6.9834834 -2.97071449 4.08473242 0 0 Z M2 5 C2 6.65 2 8.3 2 10 C2.99 10 3.98 10 5 10 C4.67 8.35 4.34 6.7 4 5 C3.34 5 2.68 5 2 5 Z " fill="#FC7100" transform="translate(108,32)"/>
<path d="M0 0 C3.96 0 7.92 0 12 0 C12 1.32 12 2.64 12 4 C10.1746875 4.0928125 10.1746875 4.0928125 8.3125 4.1875 C3.81254505 4.71315845 1.97376159 6.58892052 -1 10 C-1.66 10 -2.32 10 -3 10 C-4.12452478 15.50926772 -4.12452478 15.50926772 -2.875 20.8125 C-0.72648912 23.31909602 0.95976217 24.69704093 4 26 C6.67975596 26.01453953 6.67975596 26.01453953 9 25 C9.66 24.01 10.32 23.02 11 22 C12.32 22 13.64 22 15 22 C15.34098943 25.06890491 15.21961817 26.63064217 13.625 29.3125 C9.51808264 31.95266116 5.73215309 31.94926424 1 31 C-3.54764566 28.66594345 -7.14988259 25.86445505 -9 21 C-9.56465681 16.49007872 -9.55605009 12.34622654 -7.8125 8.125 C-5.76171865 5.72063566 -3.50758215 3.91368112 -1 2 C-0.67 1.34 -0.34 0.68 0 0 Z " fill="#FC7100" transform="translate(17,15)"/>
<path d="M0 0 C2.59379987 1.79901233 2.86293053 3.4158197 3.63671875 6.43359375 C3.8790625 7.34367187 4.12140625 8.25375 4.37109375 9.19140625 C4.54125 9.89007813 4.71140625 10.58875 4.88671875 11.30859375 C6.86671875 11.30859375 8.84671875 11.30859375 10.88671875 11.30859375 C10.88671875 12.95859375 10.88671875 14.60859375 10.88671875 16.30859375 C7.65772449 16.39610645 4.42903759 16.44915521 1.19921875 16.49609375 C-0.16879883 16.53379883 -0.16879883 16.53379883 -1.56445312 16.57226562 C-6.58531077 16.62703862 -10.03561419 16.60560765 -14.11328125 13.30859375 C-14.44328125 12.97859375 -14.77328125 12.64859375 -15.11328125 12.30859375 C-15.0625 10.34765625 -15.0625 10.34765625 -14.80078125 7.93359375 C-14.72214844 7.14210938 -14.64351562 6.350625 -14.5625 5.53515625 C-14.11328125 3.30859375 -14.11328125 3.30859375 -12.11328125 0.30859375 C-8.03774814 -1.04991729 -4.13505906 -1.35287514 0 0 Z M-10.11328125 6.30859375 C-9.78328125 7.95859375 -9.45328125 9.60859375 -9.11328125 11.30859375 C-6.80328125 11.63859375 -4.49328125 11.96859375 -2.11328125 12.30859375 C-1.34611274 9.45781284 -1.34611274 9.45781284 -1.11328125 6.30859375 C-2.30223361 4.36826971 -2.30223361 4.36826971 -4.11328125 3.30859375 C-6.87551403 3.30859375 -8.00609579 4.62284538 -10.11328125 6.30859375 Z " fill="#FC7100" transform="translate(58.11328125,84.69140625)"/>
<path d="M0 0 C1.32 0 2.64 0 4 0 C4.11611395 4.24977046 4.18722349 8.49913337 4.25 12.75 C4.30027344 14.55984375 4.30027344 14.55984375 4.3515625 16.40625 C4.36445312 17.56640625 4.37734375 18.7265625 4.390625 19.921875 C4.41157227 20.99018555 4.43251953 22.05849609 4.45410156 23.15917969 C3.89032392 26.68612414 2.79337041 27.84620755 0 30 C-2.32421875 30.2421875 -2.32421875 30.2421875 -4.6875 29.875 C-5.47511719 29.76929687 -6.26273438 29.66359375 -7.07421875 29.5546875 C-7.70972656 29.37164062 -8.34523437 29.18859375 -9 29 C-10.11445498 26.77109005 -10.16480286 25.46944894 -10.1875 23 C-10.20167969 22.29875 -10.21585938 21.5975 -10.23046875 20.875 C-10 19 -10 19 -8 17 C-5.69 17 -3.38 17 -1 17 C-0.67 11.39 -0.34 5.78 0 0 Z M-5 21 C-5.33 21.66 -5.66 22.32 -6 23 C-5.67 23.66 -5.34 24.32 -5 25 C-3.68 24.67 -2.36 24.34 -1 24 C-1.33 23.01 -1.66 22.02 -2 21 C-2.99 21 -3.98 21 -5 21 Z " fill="#FC7100" transform="translate(66,17)"/>
<path d="M0 0 C0.66 0.33 1.32 0.66 2 1 C2 2.32 2 3.64 2 5 C1.071875 4.979375 0.14375 4.95875 -0.8125 4.9375 C-4.02286011 4.84230396 -4.02286011 4.84230396 -7 6 C-7.08226668 9.04386724 -6.97608217 11.07175348 -6 14 C-3.36 14 -0.72 14 2 14 C2 13.34 2 12.68 2 12 C3.32 12 4.64 12 6 12 C6 13.98 6 15.96 6 18 C2.2818988 20.47873413 -1.68892522 20.76806505 -6 20 C-10.37758112 17.65486726 -10.37758112 17.65486726 -12 15 C-12.79671293 11.50363392 -12.75761067 8.50107962 -12 5 C-8.66609551 -0.05137045 -5.88511561 -0.6662395 0 0 Z " fill="#FC7100" transform="translate(114,79)"/>
<path d="M0 0 C3.4375 1.5 3.4375 1.5 6 4 C6.71592516 7.48325124 6.61636803 10.76726394 5 14 C2.87527424 14.05386629 0.75016348 14.09273071 -1.375 14.125 C-3.15003906 14.15980469 -3.15003906 14.15980469 -4.9609375 14.1953125 C-8 14 -8 14 -10 12 C-10.30078125 9.94140625 -10.30078125 9.94140625 -10.3125 7.5625 C-10.32925781 6.78003906 -10.34601562 5.99757813 -10.36328125 5.19140625 C-9.39931722 -0.62347353 -5.08558858 -0.60337492 0 0 Z M-4 4 C-5.10836423 5.88316159 -5.10836423 5.88316159 -6 8 C-5.67 8.66 -5.34 9.32 -5 10 C-3.02 10 -1.04 10 1 10 C1 9.01 1 8.02 1 7 C-1.44496043 5.28288757 -1.44496043 5.28288757 -4 4 Z " fill="#FC7100" transform="translate(47,32)"/>
<path d="M0 0 C1.32 0 2.64 0 4 0 C4.33 0.66 4.66 1.32 5 2 C6.6396875 1.6596875 6.6396875 1.6596875 8.3125 1.3125 C12 1 12 1 13.8125 2.0625 C16.35786319 6.215461 17.28470839 10.15995738 17 15 C15.35 14.67 13.7 14.34 12 14 C11.71125 12.865625 11.4225 11.73125 11.125 10.5625 C10.75375 9.386875 10.3825 8.21125 10 7 C9.34 6.67 8.68 6.34 8 6 C7.690625 6.94875 7.38125 7.8975 7.0625 8.875 C6 12 6 12 5 14 C3.35 14 1.7 14 0 14 C0 9.38 0 4.76 0 0 Z " fill="#FC7100" transform="translate(85,32)"/>
<path d="M0 0 C1.32 0 2.64 0 4 0 C4.3690205 15.74487472 4.3690205 15.74487472 2 23 C0.68 23 -0.64 23 -2 23 C-2.11026464 17.75553818 -1.70328983 12.75639047 -1 7.5625 C-0.90460937 6.83095703 -0.80921875 6.09941406 -0.7109375 5.34570312 C-0.47794062 3.563277 -0.23953734 1.78155896 0 0 Z " fill="#FC7100" transform="translate(46,58)"/>
<path d="M0 0 C2.475 0.495 2.475 0.495 5 1 C5 5.62 5 10.24 5 15 C3.68 15 2.36 15 1 15 C0.67 10.05 0.34 5.1 0 0 Z " fill="#FC7100" transform="translate(93,84)"/>
<path d="M0 0 C1.32 0 2.64 0 4 0 C4.33 3.3 4.66 6.6 5 10 C3.35 10 1.7 10 0 10 C0 6.7 0 3.4 0 0 Z " fill="#FC7100" transform="translate(74,36)"/>
<path d="M0 0 C1.98 0 3.96 0 6 0 C5.67 1.65 5.34 3.3 5 5 C3.35 4.67 1.7 4.34 0 4 C0 2.68 0 1.36 0 0 Z " fill="#FC7100" transform="translate(91,75)"/>
<path d="M0 0 C1.32 0 2.64 0 4 0 C4 1.32 4 2.64 4 4 C2.68 4 1.36 4 0 4 C0 2.68 0 1.36 0 0 Z " fill="#FC7100" transform="translate(47,51)"/>
<path d="M0 0 C1.32 0 2.64 0 4 0 C4 1.32 4 2.64 4 4 C2.68 4 1.36 4 0 4 C0 2.68 0 1.36 0 0 Z " fill="#FC7100" transform="translate(73,29)"/>
</svg>
